<svg fill="none" height="512" viewBox="0 0 24 24" width="512" xmlns="http://www.w3.org/2000/svg"><path clip-rule="evenodd" d="m12 2c.5523 0 1 .44772 1 1v9c0 .5523-.4477 1-1 1s-1-.4477-1-1v-9c0-.55228.4477-1 1-1zm-5.66191 2.93279c.39059.39046.39069 1.02363.00023 1.41422-1.11856 1.11892-1.88022 2.54439-2.18869 4.09619s-.1499 3.1602.45568 4.6218c.60558 1.4617 1.63096 2.7109 2.9465 3.5899 1.31553.8789 2.86219 1.348 4.44429 1.348s3.1288-.4691 4.4443-1.348c1.3155-.879 2.3409-2.1282 2.9465-3.5899.6056-1.4616.7641-3.07.4557-4.6218-.3085-1.5518-1.0702-2.97727-2.1887-4.09619-.3905-.39059-.3904-1.02376.0002-1.41422s1.0238-.39035 1.4142.00023c1.3982 1.39866 2.3503 3.18049 2.7359 5.12018.3856 1.9398.1874 3.9503-.5696 5.7773-.757 1.8271-2.0387 3.3887-3.6831 4.4874-1.6445 1.0986-3.5777 1.685-5.5554 1.685s-3.91094-.5864-5.55536-1.685c-1.64443-1.0987-2.92615-2.6603-3.68312-4.4874-.75698-1.827-.9552-3.8375-.56961-5.7773.38558-1.93969 1.33767-3.72152 2.73587-5.12018.39046-.39058 1.02362-.39069 1.41421-.00023z" fill="rgb(0,0,0)" fill-rule="evenodd"/></svg>